<?xml version="1.0" encoding="utf-8"?>
<!-- Generator: Adobe Illustrator 16.0.0, SVG Export Plug-In . SVG Version: 6.00 Build 0)  -->
<!DOCTYPE svg PUBLIC "-//W3C//DTD SVG 1.1//EN" "http://www.w3.org/Graphics/SVG/1.1/DTD/svg11.dtd">
<svg version="1.1" id="Layer_1" xmlns="http://www.w3.org/2000/svg" xmlns:xlink="http://www.w3.org/1999/xlink" x="0px" y="0px"
	 width="925.12px" height="161px" viewBox="0 0 925.12 161" enable-background="new 0 0 925.12 161" xml:space="preserve">
<g>
	<path display="none" fill-rule="evenodd" clip-rule="evenodd" fill="#FFFFFF" d="M946.004,495.613c-320.045,0-640.089,0-960.134,0
		c0-270.287,0-540.576,0-810.863c320.045,0,640.089,0,960.134,0C946.004-44.962,946.004,225.326,946.004,495.613z M804.919,83.764
		c6.246,0,12.21-0.125,18.164,0.059c2.553,0.08,3.332-0.859,3.841-3.264c2.562-12.086,5.353-24.124,8.063-36.178
		c1.742-7.745,3.486-15.49,5.263-23.38c-34.615,0-68.836,0-103.294,0c-4.602,20.878-9.179,41.653-13.831,62.764
		c3.293,0,6.157,0.056,9.02-0.013c4.087-0.097,9.275,1.165,11.935-0.859c2.461-1.872,2.264-7.292,3.149-11.169
		c2.827-12.387,5.613-24.784,8.441-37.291c6.305,0,12.387,0,18.86,0c-3.612,16.496-7.173,32.747-10.778,49.208
		c7.448,0,14.427,0,21.719,0c3.683-16.416,7.362-32.81,11.027-49.148c6.551,0,12.738,0,19.347,0
		C812.188,50.98,808.602,67.158,804.919,83.764z M362.235,83.876c5.986,0,11.341,0.001,16.695,0
		c11.986-0.002,23.973,0.073,35.958-0.037c7.253-0.067,10.697-3.042,12.233-10.002c3.09-13.998,6.174-27.997,9.32-41.982
		c1.747-7.769-0.766-11.002-8.792-11.011c-16.106-0.018-32.212-0.009-48.319,0.004c-1.078,0-2.156,0.124-3.251,0.192
		C371.468,41.972,366.912,62.65,362.235,83.876z M559.064,56.622c2.381,0,4.223,0.059,6.06-0.01
		c6.975-0.261,11.14-3.733,12.637-10.44c1.141-5.111,2.346-10.208,3.458-15.326c1.398-6.434-1.279-9.86-7.896-9.986
		c-5.244-0.1-10.491-0.021-15.738-0.021c-12.229-0.001-24.459,0-36.938,0c-4.618,20.969-9.194,41.755-13.882,63.037
		c6.239,0,11.966-0.135,17.68,0.057c2.84,0.096,4.056-0.583,4.644-3.678c2.726-14.333,5.782-28.603,8.805-42.878
		c0.225-1.058,1.086-2.806,1.703-2.829c5.904-0.215,11.82-0.129,18.142-0.129c-0.979,4.246-1.807,7.839-2.673,11.596
		c-4.553,0-8.801-0.156-13.023,0.109c-1.059,0.066-2.642,1.298-2.945,2.307c-1.475,4.901-2.261,9.705,0.262,14.799
		c2.475,5,4.307,10.387,5.813,15.775c1.146,4.099,3.099,5.527,7.353,5.194c5.375-0.421,10.809-0.102,16.746-0.102
		C565.742,74.603,562.502,65.879,559.064,56.622z M641.143,83.615c2.768-12.673,5.469-25.04,8.234-37.703
		c-11.439,0-22.267,0-33.306,0c-0.947,4.317-1.876,8.554-2.893,13.188c4.039,0,7.749,0,11.88,0
		c-0.855,3.902-1.618,7.389-2.378,10.85c-6.413,0-12.578,0-18.952,0c0.147-1.274,0.175-2.264,0.385-3.214
		c2.149-9.74,4.433-19.451,6.427-29.223c0.51-2.5,1.486-3.224,3.939-3.192c9.616,0.123,19.235,0.081,28.853,0.007
		c1.132-0.009,2.747-0.236,3.307-0.984c2.882-3.856,5.493-7.915,8.475-12.307c-21.128,0-41.663,0-62.44,0
		c-4.576,20.788-9.148,41.558-13.776,62.579C599.872,83.615,620.321,83.615,641.143,83.615z M912.19,20.981
		c-1.431-0.07-2.154-0.137-2.879-0.138c-16.368-0.006-32.737-0.028-49.105,0.006c-7.488,0.016-11.544,3.375-13.103,10.674
		c-1.302,6.099-2.56,12.208-3.926,18.292c-1.13,5.035,0.343,7.775,5.408,8.566c3.545,0.554,7.208,0.442,10.819,0.474
		c7.213,0.062,14.426,0.018,21.978,0.018c-0.726,3.166-1.546,5.803-1.886,8.501c-0.315,2.502-1.596,2.918-3.791,2.896
		c-9.246-0.091-18.493-0.062-27.738-0.009c-1.186,0.007-2.934-0.004-3.458,0.704c-2.993,4.049-5.694,8.313-8.758,12.896
		c1.604,0.113,2.464,0.231,3.322,0.226c15.489-0.103,30.978-0.196,46.466-0.362c2.232-0.023,4.507-0.21,6.684-0.68
		c4.517-0.974,7.547-3.545,8.467-8.349c0.985-5.145,2.213-10.243,3.297-15.37c2.49-11.779,0.771-13.847-11.461-13.848
		c-8.466,0-16.933,0-25.709,0c0.621-2.868,1.382-5.394,1.667-7.974c0.286-2.577,1.482-3.218,3.922-3.186
		c9.369,0.122,18.743,0.11,28.111-0.023c1.281-0.019,3.015-0.655,3.737-1.611C906.949,29.118,909.309,25.298,912.19,20.981z
		 M220.948,34.369c1.659,0,3.016,0,4.373,0c8.873,0,17.747,0.028,26.619-0.034c1.168-0.008,2.875-0.073,3.41-0.795
		c2.93-3.951,5.572-8.116,8.622-12.667c-18.489,0-36.223-0.132-53.953,0.076c-5.81,0.068-9.696,3.871-10.951,9.542
		c-1.483,6.699-2.938,13.405-4.405,20.107c-0.824,3.762,0.59,6.491,4.276,7.513c2.012,0.557,4.184,0.714,6.287,0.731
		c9.098,0.076,18.197,0.032,27.858,0.032c-0.67,2.979-1.431,5.462-1.743,8c-0.326,2.646-1.461,3.473-4.144,3.424
		c-9.245-0.168-18.495-0.106-27.742-0.014c-1.228,0.012-2.965,0.322-3.584,1.152c-2.876,3.859-5.443,7.951-8.39,12.362
		c1.553,0.134,2.503,0.292,3.452,0.287c10.619-0.071,21.238-0.16,31.856-0.258c5.997-0.056,11.998-0.019,17.988-0.24
		c5.92-0.218,10.253-3.158,11.283-7.58c1.613-6.925,3.193-13.863,4.543-20.843c1.19-6.16-1.376-9.351-7.661-9.583
		c-5.24-0.195-10.494-0.037-15.742-0.036c-4.814,0-9.629,0-14.703,0C219.346,41.672,220.092,38.271,220.948,34.369z M675.751,70.126
		c0.628-2.878,1.332-5.156,1.577-7.481c0.298-2.825,1.574-3.641,4.38-3.588c9.369,0.176,18.745,0.128,28.115-0.012
		c1.181-0.018,3.119-0.86,3.381-1.722c1.11-3.652,1.719-7.457,2.608-11.668c-11.755,0-23.073,0-34.726,0
		c0.926-4.032,1.748-7.609,2.592-11.285c10.819,0,21.182,0.021,31.545-0.028c1.184-0.006,2.921,0.026,3.455-0.678
		c3.02-3.98,5.751-8.179,8.747-12.547c-21.325,0-41.884,0-62.447,0c-4.614,20.95-9.17,41.635-13.796,62.641
		c18.575,0,36.809,0.008,55.04-0.034c0.653-0.001,1.584-0.302,1.915-0.785c2.785-4.071,5.459-8.216,8.478-12.813
		C702.69,70.126,689.483,70.126,675.751,70.126z M434.956,83.228c0.553,0.263,0.773,0.458,0.994,0.458
		c17.863,0.035,35.725,0.062,53.588,0.053c0.694,0,1.716-0.114,2.029-0.563c2.872-4.11,5.622-8.306,8.9-13.214
		c-14.26,0-27.409,0-40.888,0c0.418-2.226,0.957-4.031,1.062-5.86c0.234-4.093,2.17-5.229,6.241-5.088
		c9.836,0.34,19.693,0.11,29.703,0.11c0.96-4.517,1.856-8.73,2.852-13.413c-11.708,0-22.898,0-34.62,0
		c0.667-3.103,1.397-5.719,1.752-8.386c0.316-2.364,1.396-3.033,3.714-3.004c9.618,0.118,19.237,0.077,28.856,0.012
		c1.155-0.008,2.83-0.124,3.376-0.854c2.936-3.931,5.592-8.072,8.611-12.535c-21.174,0-41.63,0-62.443,0
		C444.099,41.747,439.519,62.526,434.956,83.228z M273.171,20.861c-4.639,21.091-9.203,41.842-13.859,63.015
		c6.656,0,12.641-0.123,18.616,0.059c2.46,0.075,3.163-0.918,3.59-3.128c1.349-6.979,3.018-13.896,4.376-20.874
		c0.49-2.509,1.464-3.442,4.174-3.383c8.993,0.197,17.993,0.12,26.99,0.059c6.778-0.046,11.729-3.543,13.006-9.123
		c1.308-5.716,2.587-11.44,3.762-17.185c1.166-5.703-1.318-9.317-7.037-9.375C309.056,20.747,291.319,20.861,273.171,20.861z
		 M352.451,83.617c4.658-20.978,9.258-41.704,13.937-62.775c-6.842,0-13.078-0.111-19.301,0.122
		c-0.921,0.035-2.326,1.573-2.582,2.637c-2.125,8.849-4.044,17.747-6.001,26.635c-2.433,11.053-4.841,22.111-7.306,33.38
		C338.39,83.617,345.226,83.617,352.451,83.617z"/>
	<path fill-rule="evenodd" clip-rule="evenodd" fill="#072654" d="M804.919,83.764c3.683-16.606,7.27-32.784,10.926-49.272
		c-6.608,0-12.796,0-19.347,0c-3.665,16.338-7.345,32.732-11.027,49.148c-7.292,0-14.271,0-21.719,0
		c3.605-16.462,7.166-32.713,10.778-49.208c-6.474,0-12.556,0-18.86,0c-2.828,12.507-5.614,24.904-8.441,37.291
		c-0.886,3.878-0.688,9.298-3.149,11.169c-2.659,2.024-7.848,0.762-11.935,0.859c-2.862,0.068-5.727,0.013-9.02,0.013
		c4.652-21.111,9.229-41.886,13.831-62.764c34.458,0,68.679,0,103.294,0c-1.776,7.891-3.521,15.636-5.263,23.38
		c-2.711,12.055-5.502,24.092-8.063,36.178c-0.509,2.405-1.288,3.344-3.841,3.264C817.129,83.639,811.165,83.764,804.919,83.764z"/>
	<path fill-rule="evenodd" clip-rule="evenodd" fill="#072654" d="M362.235,83.876c4.676-21.226,9.232-41.904,13.845-62.836
		c1.095-0.068,2.173-0.191,3.251-0.192c16.107-0.013,32.213-0.021,48.319-0.004c8.025,0.008,10.539,3.242,8.792,11.011
		c-3.146,13.985-6.23,27.984-9.32,41.982c-1.536,6.959-4.98,9.935-12.233,10.002c-11.985,0.11-23.972,0.035-35.958,0.037
		C373.576,83.877,368.221,83.876,362.235,83.876z M413.158,34.375c-6.056,0-11.286-0.113-16.502,0.106
		c-0.919,0.039-2.275,1.315-2.577,2.285c-0.958,3.083-1.525,6.287-2.221,9.449c-1.706,7.748-3.4,15.498-5.211,23.756
		c6.086,0,11.666,0.095,17.233-0.116c0.718-0.028,1.758-1.55,1.996-2.538c1.43-5.93,2.67-11.905,3.975-17.865
		C410.91,44.616,411.972,39.781,413.158,34.375z"/>
	<path fill-rule="evenodd" clip-rule="evenodd" fill="#072654" d="M559.064,56.622c3.438,9.257,6.678,17.981,10.204,27.476
		c-5.938,0-11.371-0.319-16.746,0.102c-4.254,0.333-6.207-1.095-7.353-5.194c-1.506-5.388-3.338-10.775-5.813-15.775
		c-2.522-5.094-1.736-9.898-0.262-14.799c0.304-1.009,1.887-2.241,2.945-2.307c4.223-0.265,8.471-0.109,13.023-0.109
		c0.866-3.756,1.694-7.35,2.673-11.596c-6.321,0-12.237-0.086-18.142,0.129c-0.617,0.023-1.479,1.771-1.703,2.829
		c-3.022,14.275-6.079,28.546-8.805,42.878c-0.588,3.095-1.804,3.774-4.644,3.678c-5.714-0.192-11.44-0.057-17.68-0.057
		c4.688-21.282,9.264-42.068,13.882-63.037c12.479,0,24.709-0.001,36.938,0c5.247,0,10.494-0.079,15.738,0.021
		c6.616,0.126,9.294,3.552,7.896,9.986c-1.112,5.117-2.317,10.215-3.458,15.326c-1.497,6.707-5.662,10.179-12.637,10.44
		C563.287,56.68,561.445,56.622,559.064,56.622z"/>
	<path fill-rule="evenodd" clip-rule="evenodd" fill="#072654" d="M641.143,83.615c-20.821,0-41.271,0-62.246,0
		c4.628-21.021,9.2-41.792,13.776-62.579c20.777,0,41.313,0,62.44,0c-2.981,4.392-5.593,8.451-8.475,12.307
		c-0.56,0.748-2.175,0.975-3.307,0.984c-9.617,0.074-19.236,0.116-28.853-0.007c-2.453-0.031-3.43,0.693-3.939,3.192
		c-1.994,9.772-4.277,19.483-6.427,29.223c-0.21,0.95-0.237,1.94-0.385,3.214c6.374,0,12.539,0,18.952,0
		c0.76-3.461,1.522-6.948,2.378-10.85c-4.131,0-7.841,0-11.88,0c1.017-4.634,1.945-8.871,2.893-13.188c11.039,0,21.866,0,33.306,0
		C646.611,58.575,643.91,70.942,641.143,83.615z"/>
	<path fill-rule="evenodd" clip-rule="evenodd" fill="#072654" d="M912.19,20.981c-2.882,4.317-5.241,8.137-7.936,11.705
		c-0.723,0.956-2.456,1.593-3.737,1.611c-9.368,0.134-18.742,0.146-28.111,0.023c-2.439-0.032-3.636,0.609-3.922,3.186
		c-0.285,2.58-1.046,5.106-1.667,7.974c8.776,0,17.243,0,25.709,0c12.232,0.001,13.951,2.069,11.461,13.848
		c-1.084,5.126-2.312,10.225-3.297,15.37c-0.92,4.803-3.95,7.375-8.467,8.349c-2.177,0.47-4.451,0.657-6.684,0.68
		c-15.488,0.166-30.977,0.259-46.466,0.362c-0.858,0.006-1.718-0.113-3.322-0.226c3.063-4.583,5.765-8.847,8.758-12.896
		c0.524-0.708,2.272-0.697,3.458-0.704c9.245-0.053,18.492-0.082,27.738,0.009c2.195,0.021,3.476-0.395,3.791-2.896
		c0.34-2.698,1.16-5.335,1.886-8.501c-7.552,0-14.765,0.044-21.978-0.018c-3.611-0.032-7.274,0.08-10.819-0.474
		c-5.065-0.791-6.538-3.531-5.408-8.566c1.366-6.084,2.624-12.194,3.926-18.292c1.559-7.298,5.614-10.658,13.103-10.674
		c16.368-0.034,32.737-0.012,49.105-0.006C910.036,20.844,910.76,20.911,912.19,20.981z"/>
	<path fill-rule="evenodd" clip-rule="evenodd" fill="#072654" d="M220.948,34.369c-0.856,3.902-1.602,7.303-2.452,11.176
		c5.074,0,9.889,0,14.703,0c5.248-0.001,10.501-0.159,15.742,0.036c6.285,0.233,8.851,3.423,7.661,9.583
		c-1.35,6.979-2.93,13.917-4.543,20.843c-1.03,4.422-5.363,7.362-11.283,7.58c-5.99,0.221-11.991,0.184-17.988,0.24
		c-10.619,0.098-21.237,0.187-31.856,0.258c-0.949,0.006-1.898-0.152-3.452-0.287c2.947-4.411,5.513-8.502,8.39-12.362
		c0.619-0.83,2.357-1.14,3.584-1.152c9.247-0.092,18.498-0.155,27.742,0.014c2.683,0.048,3.818-0.778,4.144-3.424
		c0.313-2.538,1.073-5.02,1.743-8c-9.661,0-18.76,0.043-27.858-0.032c-2.103-0.018-4.275-0.175-6.287-0.731
		c-3.687-1.021-5.101-3.75-4.276-7.513c1.468-6.703,2.922-13.408,4.405-20.107c1.255-5.671,5.141-9.474,10.951-9.542
		c17.73-0.208,35.464-0.076,53.953-0.076c-3.05,4.551-5.692,8.716-8.622,12.667c-0.535,0.722-2.241,0.787-3.41,0.795
		c-8.873,0.062-17.746,0.034-26.619,0.034C223.964,34.369,222.607,34.369,220.948,34.369z"/>
	<path fill-rule="evenodd" clip-rule="evenodd" fill="#072654" d="M675.751,70.126c13.732,0,26.939,0,40.864,0
		c-3.019,4.597-5.692,8.742-8.478,12.813c-0.331,0.483-1.262,0.784-1.915,0.785c-18.231,0.042-36.465,0.034-55.04,0.034
		c4.626-21.006,9.182-41.691,13.796-62.641c20.563,0,41.122,0,62.447,0c-2.996,4.368-5.728,8.567-8.747,12.547
		c-0.534,0.704-2.271,0.672-3.455,0.678c-10.363,0.048-20.726,0.028-31.545,0.028c-0.844,3.675-1.666,7.253-2.592,11.285
		c11.652,0,22.971,0,34.726,0c-0.89,4.212-1.498,8.016-2.608,11.668c-0.262,0.862-2.2,1.705-3.381,1.722
		c-9.37,0.14-18.746,0.188-28.115,0.012c-2.806-0.053-4.082,0.763-4.38,3.588C677.083,64.97,676.379,67.248,675.751,70.126z"/>
	<path fill-rule="evenodd" clip-rule="evenodd" fill="#072654" d="M434.956,83.228c4.563-20.702,9.144-41.48,13.729-62.283
		c20.813,0,41.27,0,62.443,0c-3.02,4.462-5.676,8.604-8.611,12.535c-0.546,0.729-2.221,0.845-3.376,0.854
		c-9.619,0.064-19.238,0.106-28.856-0.012c-2.317-0.029-3.397,0.64-3.714,3.004c-0.355,2.667-1.086,5.283-1.752,8.386
		c11.721,0,22.912,0,34.62,0c-0.995,4.683-1.892,8.896-2.852,13.413c-10.01,0-19.867,0.23-29.703-0.11
		c-4.071-0.141-6.007,0.995-6.241,5.088c-0.104,1.83-0.643,3.635-1.062,5.86c13.479,0,26.628,0,40.888,0
		c-3.278,4.909-6.028,9.104-8.9,13.214c-0.313,0.449-1.335,0.563-2.029,0.563c-17.863,0.009-35.726-0.018-53.588-0.053
		C435.729,83.686,435.509,83.49,434.956,83.228z"/>
	<path fill-rule="evenodd" clip-rule="evenodd" fill="#072654" d="M273.171,20.861c18.147,0,35.885-0.114,53.619,0.066
		c5.718,0.058,8.203,3.671,7.037,9.375c-1.174,5.745-2.454,11.469-3.762,17.185c-1.277,5.58-6.229,9.077-13.006,9.123
		c-8.997,0.061-17.997,0.139-26.99-0.059c-2.71-0.059-3.685,0.874-4.174,3.383c-1.359,6.978-3.027,13.895-4.376,20.874
		c-0.427,2.21-1.13,3.203-3.59,3.128c-5.975-0.182-11.96-0.059-18.616-0.059C263.969,62.703,268.532,41.952,273.171,20.861z
		 M310.164,34.386c-5.922,0-11.399-0.061-16.87,0.075c-0.704,0.017-1.814,0.934-2,1.63c-0.824,3.096-1.381,6.263-2.137,9.897
		c5.947,0,11.417,0.061,16.881-0.076c0.697-0.018,1.79-0.954,1.979-1.658C308.845,41.152,309.409,37.981,310.164,34.386z"/>
	<path fill-rule="evenodd" clip-rule="evenodd" fill="#072654" d="M352.451,83.617c-7.225,0-14.061,0-21.253,0
		c2.465-11.269,4.874-22.327,7.306-33.38c1.957-8.889,3.876-17.787,6.001-26.635c0.256-1.064,1.661-2.603,2.582-2.637
		c6.224-0.233,12.459-0.122,19.301-0.122C361.709,41.913,357.108,62.639,352.451,83.617z"/>
	<path display="none" fill-rule="evenodd" clip-rule="evenodd" fill="#FFFFFF" d="M413.158,34.375
		c-1.186,5.406-2.248,10.241-3.308,15.078c-1.305,5.959-2.545,11.935-3.975,17.865c-0.238,0.987-1.278,2.51-1.996,2.538
		c-5.567,0.211-11.147,0.116-17.233,0.116c1.811-8.258,3.505-16.008,5.211-23.756c0.696-3.162,1.263-6.366,2.221-9.449
		c0.302-0.97,1.658-2.247,2.577-2.285C401.872,34.262,407.102,34.375,413.158,34.375z"/>
	<path display="none" fill-rule="evenodd" clip-rule="evenodd" fill="#FFFFFF" d="M310.164,34.386
		c-0.754,3.596-1.318,6.767-2.147,9.868c-0.188,0.704-1.281,1.641-1.979,1.658c-5.464,0.137-10.934,0.076-16.881,0.076
		c0.756-3.634,1.313-6.801,2.137-9.897c0.186-0.697,1.297-1.614,2-1.63C298.765,34.325,304.241,34.386,310.164,34.386z"/>
</g>
<g>
	<path display="none" fill-rule="evenodd" clip-rule="evenodd" fill="#FFFFFF" d="M187.479,175.639c-62.517,0-125.01,0-187.479,0
		c0-62.517,0-125.01,0-187.479c62.517,0,125.01,0,187.479,0C187.479,50.676,187.479,113.169,187.479,175.639z M137.003,57.796
		c1.651,0,2.868,0.001,4.084,0c7.499-0.004,14.999,0.073,22.491-0.138c0.753-0.021,1.904-1.688,2.11-2.741
		c1.198-6.12,2.171-12.285,3.219-18.435c1.924-11.3-3.24-17.481-14.802-17.493c-32.117-0.029-64.234-0.02-96.351,0.035
		c-10.983,0.019-19.02,6.822-21.087,17.499c-2.655,13.716-5.401,27.413-8.074,41.125c-2.789,14.305-5.538,28.62-8.293,42.878
		c0.447,0.199,0.672,0.388,0.898,0.388c30.866,0.045,61.731,0.063,92.597,0.142c2.145,0.005,2.813-1.123,3.15-2.888
		c1.854-9.68,3.651-19.37,5.641-29.021c0.491-2.385-0.16-3.265-2.482-3.264c-12.363,0.004-24.726-0.039-37.088-0.017
		c-5.615,0.01-11.241-0.034-16.837,0.33c-1.327,0.087-3.236,1.466-3.684,2.688c-0.961,2.624-1.145,5.533-1.741,8.85
		c11.052,0,21.721,0,32.387,0c-0.26,8.151-0.26,8.134-7.744,8.121c-9.998-0.017-19.995-0.003-29.993-0.003
		c-5.13,0-5.187-0.013-4.226-4.908c3.892-19.831,7.811-39.656,11.743-59.479c1.278-6.443,1.907-6.955,8.376-6.958
		c22.244-0.01,44.488-0.004,66.732-0.003c1.184,0,2.366,0,3.863,0C140.211,42.516,138.655,49.924,137.003,57.796z M133.521,77.987
		c-3.017,15.285-5.89,30.162-8.911,45.008c-1.18,5.794-1.847,6.197-7.783,6.199c-13.995,0.006-27.99-0.02-41.985-0.021
		c-17.494-0.003-34.989,0.082-52.481-0.063c-3.225-0.026-4.098,0.996-3.84,4.076c0.405,4.843,3.04,9.034,7.955,10.072
		c4.817,1.018,9.85,1.375,14.791,1.395c28.988,0.119,57.977-0.004,86.965,0.078c12.492,0.035,21.063-6.647,23.047-18.315
		c2.563-15.079,5.623-30.075,8.521-45.096c0.951-4.928,2.064-9.825,3.202-15.207c-23.225,0-45.796,0-68.348,0
		c-0.296-7.612,0.138-8.147,7.038-8.203c7.621-0.061,15.245,0.029,22.866-0.062c1.094-0.012,2.983-0.452,3.143-1.055
		c1.186-4.471,2.026-9.032,3.03-13.827c-20.128,0-39.582,0-59.379,0c-2.258,11.588-4.499,23.086-6.825,35.021
		C87.718,77.987,110.406,77.987,133.521,77.987z"/>
	<path fill-rule="evenodd" clip-rule="evenodd" fill="#3395FF" d="M137.003,57.796c1.652-7.872,3.208-15.28,4.89-23.291
		c-1.497,0-2.68,0-3.863,0c-22.244-0.001-44.488-0.007-66.732,0.003c-6.469,0.003-7.098,0.514-8.376,6.958
		c-3.932,19.823-7.852,39.648-11.743,59.479c-0.961,4.896-0.904,4.908,4.226,4.908c9.998,0,19.995-0.014,29.993,0.003
		c7.483,0.013,7.483,0.03,7.744-8.121c-10.667,0-21.335,0-32.387,0c0.596-3.316,0.78-6.226,1.741-8.85
		c0.448-1.222,2.357-2.601,3.684-2.688c5.596-0.364,11.222-0.32,16.837-0.33c12.363-0.022,24.725,0.021,37.088,0.017
		c2.322-0.001,2.974,0.879,2.482,3.264c-1.989,9.651-3.786,19.342-5.641,29.021c-0.338,1.765-1.006,2.893-3.15,2.888
		c-30.865-0.079-61.731-0.097-92.597-0.142c-0.226,0-0.451-0.188-0.898-0.388c2.756-14.259,5.505-28.573,8.293-42.878
		c2.673-13.712,5.419-27.41,8.074-41.125c2.067-10.676,10.104-17.479,21.087-17.499c32.117-0.055,64.234-0.064,96.351-0.035
		c11.562,0.011,16.726,6.193,14.802,17.493c-1.048,6.149-2.021,12.314-3.219,18.435c-0.206,1.053-1.357,2.72-2.11,2.741
		c-7.492,0.21-14.992,0.133-22.491,0.138C139.871,57.797,138.654,57.796,137.003,57.796z"/>
	<path fill-rule="evenodd" clip-rule="evenodd" fill="#072654" d="M133.521,77.987c-23.115,0-45.803,0-68.995,0
		c2.326-11.935,4.567-23.434,6.825-35.021c19.797,0,39.251,0,59.379,0c-1.004,4.794-1.845,9.356-3.03,13.827
		c-0.159,0.603-2.049,1.042-3.143,1.055c-7.621,0.09-15.245,0.001-22.866,0.062c-6.9,0.056-7.334,0.591-7.038,8.203
		c22.552,0,45.123,0,68.348,0c-1.138,5.382-2.251,10.279-3.202,15.207c-2.898,15.021-5.959,30.017-8.521,45.096
		c-1.983,11.668-10.555,18.351-23.047,18.315c-28.988-0.082-57.977,0.041-86.965-0.078c-4.941-0.02-9.973-0.377-14.791-1.395
		c-4.915-1.038-7.549-5.229-7.955-10.072c-0.258-3.08,0.616-4.103,3.84-4.076c17.493,0.146,34.987,0.061,52.481,0.063
		c13.995,0.002,27.99,0.027,41.985,0.021c5.937-0.002,6.604-0.405,7.783-6.199C127.632,108.149,130.505,93.272,133.521,77.987z"/>
</g>
<g>
	<path fill="#072654" d="M413.597,116.647c0,4.121-0.678,7.81-2.035,11.064s-3.214,5.712-5.57,7.372
		c-2.357,1.66-5.07,2.49-8.14,2.49c-3.508,0-6.246-1.073-8.211-3.222c-1.967-2.147-2.95-5.13-2.95-8.945
		c0-3.859,0.678-7.409,2.035-10.649c1.357-3.24,3.227-5.727,5.612-7.46c2.384-1.732,5.139-2.6,8.263-2.6
		c3.494,0,6.201,1.049,8.119,3.146C412.638,109.941,413.597,112.876,413.597,116.647z M402.087,110.335
		c-1.658,0-3.179,0.666-4.563,1.998c-1.384,1.333-2.47,3.164-3.258,5.494s-1.182,4.857-1.182,7.58c0,2.141,0.455,3.757,1.367,4.85
		c0.911,1.092,2.196,1.638,3.854,1.638c1.658,0,3.168-0.633,4.532-1.9c1.363-1.267,2.429-3.058,3.196-5.373
		c0.767-2.315,1.151-4.915,1.151-7.799c0-2.067-0.445-3.666-1.336-4.795C404.958,110.899,403.704,110.335,402.087,110.335z"/>
	<path fill="#072654" d="M432.866,112.257c2,0,3.58,0.783,4.738,2.349c1.158,1.565,1.737,3.754,1.737,6.563
		c0,2.782-0.469,5.458-1.408,8.028c-0.939,2.57-2.224,4.609-3.854,6.116c-1.631,1.508-3.426,2.261-5.385,2.261
		c-1.138,0-2.117-0.27-2.939-0.808c-0.822-0.539-1.583-1.456-2.282-2.753h-0.165c-0.164,2.315-0.459,4.464-0.884,6.444l-1.48,7.427
		h-6.187l7.03-35.169h4.728l-0.349,3.713h0.185C428.241,113.647,430.413,112.257,432.866,112.257z M430.379,117.587
		c-0.932,0-1.833,0.491-2.703,1.475c-0.871,0.982-1.569,2.294-2.097,3.932c-0.528,1.639-0.792,3.448-0.792,5.429
		c0,1.165,0.253,2.097,0.761,2.796c0.507,0.699,1.206,1.049,2.097,1.049c0.917,0,1.795-0.503,2.631-1.508
		c0.835-1.005,1.511-2.384,2.024-4.14c0.514-1.754,0.771-3.483,0.771-5.188C433.072,118.868,432.174,117.587,430.379,117.587z"/>
	<path fill="#072654" d="M453.039,132.267c0.891,0,2-0.255,3.33-0.765v4.915c-1.521,0.771-3.344,1.157-5.468,1.157
		c-2.055,0-3.566-0.458-4.532-1.376c-0.966-0.917-1.449-2.337-1.449-4.26c0-0.728,0.083-1.543,0.247-2.446l2.364-11.774h-3.125
		l0.596-3.211l4.029-1.835l2.713-5.155h3.988l-1.007,5.199h5.817l-1.027,5.002h-5.797l-2.364,11.774
		c-0.082,0.437-0.123,0.823-0.123,1.157C451.23,131.728,451.833,132.267,453.039,132.267z"/>
	<path fill="#072654" d="M467.95,137.138h-6.187l4.871-24.422h6.188L467.95,137.138z M467.622,106.992
		c0-1.267,0.324-2.225,0.976-2.872c0.651-0.648,1.572-0.973,2.765-0.973c1,0,1.761,0.227,2.282,0.678
		c0.521,0.451,0.78,1.1,0.78,1.943c0,1.166-0.301,2.108-0.904,2.829c-0.603,0.721-1.534,1.081-2.795,1.081
		C468.656,109.679,467.622,108.783,467.622,106.992z"/>
	<path fill="#072654" d="M492.111,112.257c3.001,0,4.796,1.66,5.385,4.98h0.123c0.932-1.602,2.031-2.832,3.3-3.691
		c1.267-0.859,2.62-1.289,4.06-1.289c1.863,0,3.285,0.619,4.265,1.856c0.979,1.238,1.47,2.964,1.47,5.178
		c0,1.106-0.158,2.417-0.473,3.932l-2.734,13.915h-6.187l2.837-14.265c0.219-0.99,0.328-1.856,0.328-2.6
		c0-1.791-0.671-2.687-2.014-2.687c-1.261,0-2.402,0.815-3.423,2.446c-1.021,1.632-1.833,3.947-2.436,6.947l-1.974,10.157h-6.187
		l2.816-14.265c0.219-0.99,0.328-1.856,0.328-2.6c0-1.791-0.671-2.687-2.014-2.687c-1.262,0-2.405,0.83-3.433,2.49
		c-1.028,1.66-1.837,3.976-2.426,6.946l-2.015,10.114h-6.187l4.871-24.422h4.728l-0.432,4.521h0.123
		C486.814,113.917,489.247,112.257,492.111,112.257z"/>
	<path fill="#072654" d="M521.062,137.138h-6.187l4.871-24.422h6.188L521.062,137.138z M520.732,106.992
		c0-1.267,0.326-2.225,0.977-2.872c0.651-0.648,1.572-0.973,2.765-0.973c1,0,1.761,0.227,2.282,0.678
		c0.521,0.451,0.78,1.1,0.78,1.943c0,1.166-0.301,2.108-0.904,2.829c-0.603,0.721-1.534,1.081-2.795,1.081
		C521.768,109.679,520.732,108.783,520.732,106.992z"/>
	<path fill="#072654" d="M543.249,137.138h-16.341l0.719-3.932l11.819-15.4h-8.16l1.048-5.09h15.416l-0.884,4.368l-11.634,14.964
		h9.023L543.249,137.138z"/>
	<path fill="#072654" d="M559.229,137.574c-2.878,0-5.112-0.822-6.701-2.468c-1.59-1.646-2.385-3.969-2.385-6.969
		c0-3.015,0.565-5.763,1.696-8.246c1.13-2.482,2.661-4.376,4.594-5.68c1.933-1.303,4.118-1.955,6.557-1.955
		c2.426,0,4.316,0.594,5.674,1.78c1.356,1.188,2.034,2.814,2.034,4.882c0,2.724-1.144,4.824-3.433,6.303
		c-2.288,1.479-5.557,2.217-9.805,2.217h-1.048l-0.041,0.459v0.437c0,1.326,0.353,2.37,1.059,3.135
		c0.705,0.765,1.716,1.147,3.031,1.147c1.192,0,2.275-0.139,3.248-0.415s2.151-0.765,3.535-1.464v4.959
		C564.889,136.948,562.216,137.574,559.229,137.574z M562.6,116.997c-1.206,0-2.343,0.583-3.412,1.748
		c-1.068,1.165-1.768,2.585-2.096,4.259h0.925c2.124,0,3.778-0.353,4.964-1.059c1.185-0.707,1.777-1.664,1.777-2.873
		C564.758,117.688,564.039,116.997,562.6,116.997z"/>
	<path fill="#072654" d="M581.354,137.574c-2.014,0-3.601-0.778-4.758-2.337c-1.158-1.559-1.737-3.742-1.737-6.554
		c0-2.854,0.49-5.581,1.47-8.181s2.271-4.623,3.875-6.072s3.371-2.174,5.303-2.174c1.124,0,2.093,0.27,2.908,0.809
		s1.586,1.463,2.313,2.773h0.165l0.041-0.611c0.082-1.602,0.253-3.021,0.514-4.26l1.563-7.82h6.187l-6.783,33.99h-4.707l0.288-3.167
		h-0.082c-0.974,1.267-1.991,2.184-3.053,2.752S582.629,137.574,581.354,137.574z M583.945,132.267c0.904,0,1.784-0.499,2.641-1.496
		c0.856-0.998,1.545-2.327,2.066-3.987c0.521-1.66,0.78-3.443,0.78-5.352c0-1.165-0.257-2.098-0.771-2.796
		c-0.514-0.699-1.216-1.049-2.106-1.049c-0.933,0-1.819,0.524-2.662,1.573c-0.843,1.048-1.515,2.432-2.015,4.15
		c-0.5,1.718-0.75,3.422-0.75,5.111C581.129,130.985,582.067,132.267,583.945,132.267z"/>
	<path fill="#072654" d="M632.163,114.9c-0.63,2.126-1.418,4.303-2.363,6.531l-6.66,15.706h-6.947l-0.925-31.937h5.899l0.123,17.432
		c0,0.758-0.027,2.018-0.082,3.779c-0.056,1.762-0.124,3.029-0.206,3.801h0.124c0.301-0.932,0.76-2.246,1.377-3.942
		c0.616-1.697,1.027-2.756,1.233-3.179l7.584-17.891h5.55l0.432,19.07c0,2.126-0.062,4.106-0.185,5.941h0.123
		c0.589-1.879,1.486-4.42,2.692-7.624l6.783-17.388h6.352l-13.299,31.937h-7.112l-0.452-15.75l-0.041-3.036
		c0-1.281,0.027-2.432,0.082-3.451H632.163z"/>
	<path fill="#072654" d="M661.319,137.574c-2.878,0-5.112-0.822-6.701-2.468c-1.59-1.646-2.385-3.969-2.385-6.969
		c0-3.015,0.565-5.763,1.696-8.246c1.13-2.482,2.661-4.376,4.594-5.68c1.933-1.303,4.118-1.955,6.557-1.955
		c2.426,0,4.316,0.594,5.674,1.78c1.356,1.188,2.034,2.814,2.034,4.882c0,2.724-1.144,4.824-3.433,6.303
		c-2.288,1.479-5.557,2.217-9.805,2.217h-1.048l-0.041,0.459v0.437c0,1.326,0.353,2.37,1.059,3.135
		c0.705,0.765,1.716,1.147,3.031,1.147c1.192,0,2.275-0.139,3.248-0.415s2.151-0.765,3.535-1.464v4.959
		C666.979,136.948,664.306,137.574,661.319,137.574z M664.689,116.997c-1.206,0-2.343,0.583-3.412,1.748
		c-1.068,1.165-1.768,2.585-2.096,4.259h0.925c2.124,0,3.778-0.353,4.964-1.059c1.185-0.707,1.777-1.664,1.777-2.873
		C666.848,117.688,666.129,116.997,664.689,116.997z"/>
	<path fill="#072654" d="M691.811,112.257c2.001,0,3.58,0.786,4.738,2.359c1.157,1.572,1.736,3.743,1.736,6.51
		s-0.466,5.442-1.397,8.027c-0.933,2.585-2.213,4.635-3.844,6.149s-3.433,2.271-5.406,2.271c-2.658,0-4.55-1.187-5.673-3.561h-0.164
		l-1.192,3.124h-4.748l6.783-33.99h6.187l-1.274,6.291c-0.562,2.651-1.138,4.828-1.727,6.532h0.164
		c1.069-1.428,2.046-2.403,2.93-2.928S690.769,112.257,691.811,112.257z M689.323,117.587c-0.932,0-1.822,0.474-2.672,1.42
		s-1.549,2.261-2.097,3.942c-0.548,1.683-0.822,3.507-0.822,5.473c0,1.165,0.254,2.097,0.761,2.796s1.206,1.049,2.097,1.049
		c0.918,0,1.795-0.503,2.631-1.508s1.511-2.384,2.024-4.14c0.514-1.754,0.771-3.483,0.771-5.188
		C692.016,118.868,691.118,117.587,689.323,117.587z"/>
	<path fill="#072654" d="M733.061,127.701c0,3.044-1.014,5.45-3.042,7.22c-2.028,1.769-4.775,2.653-8.242,2.653
		c-3.028,0-5.468-0.655-7.317-1.966v-5.985c2.645,1.573,5.098,2.359,7.358,2.359c1.535,0,2.734-0.31,3.598-0.929
		c0.863-0.618,1.295-1.467,1.295-2.545c0-0.626-0.093-1.176-0.278-1.649c-0.185-0.473-0.448-0.913-0.791-1.321
		c-0.343-0.407-1.192-1.15-2.549-2.228c-1.891-1.442-3.221-2.869-3.987-4.282c-0.768-1.412-1.151-2.934-1.151-4.565
		c0-1.878,0.425-3.557,1.274-5.035c0.85-1.478,2.059-2.628,3.628-3.451c1.569-0.822,3.374-1.234,5.416-1.234
		c2.974,0,5.694,0.721,8.16,2.163l-2.24,5.09c-2.138-1.078-4.111-1.617-5.92-1.617c-1.138,0-2.069,0.328-2.795,0.983
		c-0.727,0.655-1.09,1.521-1.09,2.6c0,0.889,0.227,1.664,0.679,2.326c0.452,0.663,1.466,1.54,3.042,2.632
		c1.657,1.166,2.898,2.451,3.721,3.856C732.649,124.181,733.061,125.822,733.061,127.701z"/>
	<path fill="#072654" d="M759.956,121.934c0,3.073-0.482,5.797-1.449,8.17c-0.966,2.374-2.36,4.213-4.183,5.516
		c-1.822,1.304-3.987,1.955-6.495,1.955c-2.672,0-4.807-0.855-6.403-2.566c-1.596-1.711-2.395-3.986-2.395-6.826
		c0-3.103,0.49-5.865,1.47-8.29s2.395-4.304,4.245-5.636c1.85-1.333,4.015-1.999,6.495-1.999c2.686,0,4.81,0.859,6.372,2.577
		C759.175,116.553,759.956,118.919,759.956,121.934z M753.729,121.934c0-2.868-0.98-4.303-2.939-4.303
		c-1.028,0-1.95,0.444-2.765,1.332c-0.815,0.889-1.48,2.192-1.994,3.91c-0.514,1.719-0.771,3.488-0.771,5.309
		c0,2.694,1.027,4.041,3.083,4.041c1.027,0,1.953-0.448,2.775-1.344c0.821-0.896,1.462-2.141,1.922-3.735
		C753.498,125.549,753.729,123.813,753.729,121.934z"/>
	<path fill="#072654" d="M770.016,137.138h-6.187l6.783-33.99h6.187L770.016,137.138z"/>
	<path fill="#072654" d="M782.215,112.716h6.187l-2.816,14.265c-0.219,0.99-0.328,1.856-0.328,2.599c0,1.792,0.739,2.688,2.22,2.688
		c1.261,0,2.404-0.83,3.433-2.49c1.027-1.66,1.836-3.976,2.426-6.947l2.014-10.113h6.188l-4.872,24.422h-4.728l0.432-4.521h-0.123
		c-1.987,3.306-4.419,4.958-7.297,4.958c-1.891,0-3.337-0.601-4.337-1.802c-1.001-1.201-1.501-2.938-1.501-5.21
		c0-1.354,0.165-2.905,0.493-4.653L782.215,112.716z"/>
	<path fill="#072654" d="M814.083,132.267c0.891,0,2-0.255,3.329-0.765v4.915c-1.521,0.771-3.343,1.157-5.467,1.157
		c-2.056,0-3.566-0.458-4.532-1.376c-0.967-0.917-1.449-2.337-1.449-4.26c0-0.728,0.082-1.543,0.246-2.446l2.364-11.774h-3.124
		l0.596-3.211l4.028-1.835l2.714-5.155h3.987l-1.007,5.199h5.816l-1.027,5.002h-5.797l-2.363,11.774
		c-0.082,0.437-0.124,0.823-0.124,1.157C812.273,131.728,812.877,132.267,814.083,132.267z"/>
	<path fill="#072654" d="M828.994,137.138h-6.187l4.871-24.422h6.188L828.994,137.138z M828.665,106.992
		c0-1.267,0.326-2.225,0.977-2.872c0.651-0.648,1.572-0.973,2.765-0.973c1,0,1.761,0.227,2.282,0.678
		c0.521,0.451,0.78,1.1,0.78,1.943c0,1.166-0.301,2.108-0.904,2.829c-0.603,0.721-1.534,1.081-2.795,1.081
		C829.7,109.679,828.665,108.783,828.665,106.992z"/>
	<path fill="#072654" d="M858.581,121.934c0,3.073-0.482,5.797-1.449,8.17c-0.966,2.374-2.36,4.213-4.183,5.516
		c-1.822,1.304-3.987,1.955-6.495,1.955c-2.672,0-4.807-0.855-6.403-2.566c-1.596-1.711-2.395-3.986-2.395-6.826
		c0-3.103,0.49-5.865,1.47-8.29s2.395-4.304,4.245-5.636c1.85-1.333,4.015-1.999,6.495-1.999c2.686,0,4.81,0.859,6.372,2.577
		C857.8,116.553,858.581,118.919,858.581,121.934z M852.354,121.934c0-2.868-0.98-4.303-2.939-4.303
		c-1.028,0-1.95,0.444-2.765,1.332c-0.815,0.889-1.48,2.192-1.994,3.91c-0.514,1.719-0.771,3.488-0.771,5.309
		c0,2.694,1.027,4.041,3.083,4.041c1.027,0,1.953-0.448,2.775-1.344c0.821-0.896,1.462-2.141,1.922-3.735
		C852.123,125.549,852.354,123.813,852.354,121.934z"/>
	<path fill="#072654" d="M881.776,137.138h-6.188l2.816-14.265c0.219-0.99,0.329-1.856,0.329-2.6c0-1.791-0.74-2.687-2.22-2.687
		c-1.262,0-2.405,0.83-3.433,2.49c-1.028,1.66-1.837,3.976-2.426,6.946l-2.015,10.114h-6.187l4.871-24.422h4.728l-0.432,4.521h0.123
		c2.001-3.32,4.434-4.98,7.298-4.98c1.891,0,3.354,0.608,4.388,1.824c1.035,1.216,1.552,2.952,1.552,5.21
		c0,1.063-0.157,2.374-0.473,3.932L881.776,137.138z"/>
	<path fill="#072654" d="M905.423,129.077c0,2.738-0.854,4.839-2.56,6.302c-1.706,1.464-4.08,2.195-7.122,2.195
		c-1.466,0-2.744-0.108-3.833-0.327c-1.09-0.219-2.107-0.582-3.053-1.093v-5.417c2.151,1.311,4.337,1.966,6.557,1.966
		c1.097,0,1.994-0.236,2.693-0.71c0.698-0.473,1.048-1.117,1.048-1.933c0-0.626-0.254-1.188-0.761-1.683s-1.404-1.121-2.692-1.879
		c-1.658-0.99-2.815-1.977-3.474-2.96c-0.658-0.982-0.986-2.144-0.986-3.483c0-2.476,0.757-4.395,2.271-5.757
		c1.515-1.361,3.676-2.042,6.485-2.042c2.755,0,5.241,0.691,7.462,2.075l-2.035,4.696c-1.919-1.223-3.687-1.835-5.304-1.835
		c-0.78,0-1.411,0.186-1.891,0.558c-0.479,0.371-0.72,0.87-0.72,1.496c0,0.568,0.22,1.067,0.658,1.496
		c0.438,0.43,1.261,0.973,2.467,1.628c1.686,0.917,2.904,1.915,3.658,2.992C905.046,126.441,905.423,127.679,905.423,129.077z"/>
</g>
</svg>
